<?xml version="1.0" standalone="no"?>
<!DOCTYPE svg PUBLIC "-//W3C//DTD SVG 20010904//EN"
 "http://www.w3.org/TR/2001/REC-SVG-20010904/DTD/svg10.dtd">
<svg version="1.0" xmlns="http://www.w3.org/2000/svg"
 width="2100.000000pt" height="324.000000pt" viewBox="0 0 2100.000000 324.000000"
 preserveAspectRatio="xMidYMid meet">

<g transform="translate(0.000000,324.000000) scale(0.100000,-0.100000)"
fill="#000000" stroke="none">
<path d="M3455 2623 c-185 -26 -358 -129 -447 -267 -58 -90 -82 -180 -82 -301
1 -156 50 -271 160 -377 87 -84 167 -121 467 -219 291 -95 336 -117 383 -187
31 -46 38 -111 20 -176 -49 -168 -305 -226 -527 -120 -90 43 -200 150 -248
242 -18 35 -38 61 -44 59 -29 -12 -282 -121 -285 -122 -9 -7 47 -122 94 -191
118 -178 305 -299 529 -341 113 -22 302 -13 410 19 266 79 435 287 435 538 0
184 -84 335 -244 439 -82 54 -149 80 -411 163 -226 71 -280 95 -327 145 -79
83 -77 216 5 301 43 45 91 69 170 82 187 33 391 -69 476 -238 l31 -62 33 14
c17 7 85 37 149 66 l117 52 -25 55 c-95 217 -318 381 -574 422 -63 10 -203 12
-265 4z"/>
<path d="M15254 2614 c-110 -18 -255 -72 -355 -130 -96 -57 -232 -181 -295
-270 -62 -86 -129 -234 -156 -340 -32 -125 -32 -391 0 -506 84 -305 284 -545
559 -669 223 -101 542 -117 776 -38 324 109 567 367 654 698 22 83 26 118 27
256 0 134 -3 174 -22 248 -101 402 -405 681 -816 752 -107 18 -261 18 -372 -1z
m356 -330 c118 -27 206 -78 300 -173 141 -142 194 -276 194 -491 0 -216 -53
-349 -194 -490 -93 -94 -180 -145 -300 -175 -99 -26 -302 -17 -392 17 -197 74
-338 222 -405 423 -24 72 -27 95 -27 225 0 131 3 153 27 225 73 220 238 379
449 435 92 24 256 26 348 4z"/>
<path d="M500 1893 c0 -457 -4 -721 -10 -745 -16 -56 -69 -119 -124 -147 -42
-21 -67 -26 -153 -29 l-103 -4 0 -166 0 -165 133 6 c151 7 223 23 322 75 136
72 235 200 275 358 19 73 20 113 20 801 l0 723 -180 0 -180 0 0 -707z"/>
<path d="M1230 1620 l0 -980 180 0 180 0 0 359 0 359 258 5 c219 4 268 8 335
25 119 32 211 85 293 168 114 114 164 243 164 424 0 282 -144 489 -399 573
-125 42 -188 47 -613 47 l-398 0 0 -980z m867 638 c39 -14 73 -37 104 -69 62
-64 83 -125 77 -228 -6 -96 -42 -169 -108 -218 -76 -56 -117 -63 -362 -63
l-218 0 0 300 0 300 225 0 c205 0 229 -2 282 -22z"/>
<path d="M4950 2440 l0 -160 255 0 255 0 0 -820 0 -820 180 0 180 0 0 820 0
820 248 2 247 3 3 158 3 157 -686 0 -685 0 0 -160z"/>
<path d="M6374 2583 c3 -10 156 -450 340 -978 l334 -960 208 0 209 0 332 955
c183 525 336 965 339 978 l6 22 -195 0 -196 0 -71 -217 c-39 -120 -151 -459
-248 -753 l-176 -535 -249 753 -249 752 -195 0 c-181 0 -194 -1 -189 -17z"/>
<path d="M8830 1620 l0 -980 650 0 650 0 0 160 0 160 -470 0 -470 0 0 250 0
250 445 0 445 0 0 160 0 160 -445 0 -445 0 0 250 0 250 470 0 470 0 0 160 0
160 -650 0 -650 0 0 -980z"/>
<path d="M10240 2440 l0 -160 255 0 255 0 0 -820 0 -820 180 0 180 0 0 820 0
820 248 2 247 3 3 158 3 157 -686 0 -685 0 0 -160z"/>
<path d="M11820 1620 l0 -980 180 0 180 0 0 395 0 395 415 0 415 0 0 -395 0
-395 180 0 180 0 0 980 0 980 -180 0 -180 0 0 -430 0 -430 -415 0 -415 0 0
430 0 430 -180 0 -180 0 0 -980z"/>
<path d="M13750 1620 l0 -980 180 0 180 0 0 980 0 980 -180 0 -180 0 0 -980z"/>
<path d="M16790 1620 l0 -980 180 0 180 0 0 359 0 359 258 5 c219 4 268 8 335
25 119 32 211 85 293 168 114 114 164 243 164 424 0 282 -144 489 -399 573
-125 42 -188 47 -613 47 l-398 0 0 -980z m867 638 c39 -14 73 -37 104 -69 62
-64 83 -125 77 -228 -6 -96 -42 -169 -108 -218 -76 -56 -117 -63 -362 -63
l-218 0 0 300 0 300 225 0 c205 0 229 -2 282 -22z"/>
<path d="M18490 1620 l0 -980 180 0 180 0 0 980 0 980 -180 0 -180 0 0 -980z"/>
<path d="M19411 1633 c-184 -533 -336 -974 -338 -980 -4 -10 38 -13 189 -13
l194 0 71 208 71 207 378 0 379 0 70 -208 70 -207 193 0 193 0 -7 23 c-3 12
-154 451 -335 975 -181 525 -329 956 -329 958 0 2 -105 4 -233 4 l-233 0 -333
-967z m704 148 l133 -401 -273 0 -273 0 135 406 c74 223 137 403 139 401 3 -2
65 -185 139 -406z"/>
</g>
</svg>
